<svg width="16" height="16" fill="none" xmlns="http://www.w3.org/2000/svg"><g clip-path="url(#clip0_101_84)"><path d="M11.669 0H4.33A4.336 4.336 0 000 4.331v7.338A4.336 4.336 0 004.331 16h7.338A4.336 4.336 0 0016 11.669V4.331A4.336 4.336 0 0011.669 0zM8 12.375A4.38 4.38 0 013.625 8 4.38 4.38 0 018 3.625 4.38 4.38 0 0112.375 8 4.38 4.38 0 018 12.375zm4.48-7.718c-.713 0-1.293-.58-1.293-1.293s.58-1.293 1.293-1.293a1.294 1.294 0 01-.001 2.586z" fill="url(#paint0_linear_101_84)"/><path d="M8 5C6.346 5 5 6.346 5 8s1.346 3 3 3 3-1.346 3-3-1.346-3-3-3z" fill="url(#paint1_linear_101_84)"/><path d="M12.48 3.01a.355.355 0 100 .71.355.355 0 000-.71z" fill="url(#paint2_linear_101_84)"/></g><defs><linearGradient id="paint0_linear_101_84" x1="0" y1="16" x2="16.945" y2="14.927" gradientUnits="userSpaceOnUse"><stop stop-color="#fff"/><stop offset=".358" stop-color="#fff"/><stop offset=".688" stop-color="#fff"/><stop offset=".73" stop-color="#fff"/><stop offset=".965" stop-color="#fff"/></linearGradient><linearGradient id="paint1_linear_101_84" x1="0" y1="16" x2="16.945" y2="14.927" gradientUnits="userSpaceOnUse"><stop stop-color="#fff"/><stop offset=".358" stop-color="#fff"/><stop offset=".688" stop-color="#fff"/><stop offset=".73" stop-color="#fff"/><stop offset=".965" stop-color="#fff"/></linearGradient><linearGradient id="paint2_linear_101_84" x1="0" y1="16" x2="16.945" y2="14.927" gradientUnits="userSpaceOnUse"><stop stop-color="#fff"/><stop offset=".358" stop-color="#fff"/><stop offset=".688" stop-color="#fff"/><stop offset=".73" stop-color="#fff"/><stop offset=".965" stop-color="#fff"/></linearGradient><clipPath id="clip0_101_84"><path fill="#fff" d="M0 0h16v16H0z"/></clipPath></defs></svg>