<svg width="56" height="56" fill="none" xmlns="http://www.w3.org/2000/svg"><path fill-rule="evenodd" clip-rule="evenodd" d="M27.949 2.623C25.749 1.525 23.243.991 21.046.82 8.958 3.823 0 14.748 0 27.765c0 .882.041 1.755.122 2.616.342-1.16.797-2.32 1.384-3.415 1.853-3.457 5.048-6.322 10.13-6.547.11-.019.226-.029.343-.029h8.458v-8.846a2 2 0 012-2h10.817c.093 0 .185.007.275.02-.678-3.425-2.888-5.596-5.58-6.94zm-.184 52.907C14.777 55.53 3.872 46.612.84 34.565c.206-2.184.81-4.69 1.99-6.89 1.436-2.682 3.705-4.886 7.168-5.558-.012.09-.018.18-.018.273v10.75a2 2 0 002 2h8.458v8.262h-.01c.132 5.255 3.104 8.426 6.679 10.197 1.57.778 3.263 1.293 4.904 1.609a27.981 27.981 0 01-4.245.322zm8.744-1.404c11.05-3.664 19.021-14.081 19.021-26.36 0-.578-.017-1.15-.052-1.719-.272.85-.607 1.692-1.013 2.5-1.752 3.483-4.865 6.366-9.993 6.567a2.01 2.01 0 01-.324.026h-8.894v8.412a2 2 0 01-2 2H22.437c-.085 0-.17-.005-.252-.016.734 3.295 2.929 5.402 5.587 6.72 2.856 1.415 6.214 1.892 8.737 1.87zm9.62-20.703c3.458-.66 5.645-2.864 6.996-5.55.987-1.961 1.517-4.168 1.74-6.177C52.097 9.28 41.015 0 27.765 0c-.76 0-1.513.03-2.258.09 1.058.3 2.11.691 3.112 1.191 3.498 1.748 6.4 4.851 6.612 9.963.015.098.023.198.023.3v8.846h8.895a2 2 0 012 2v10.75c0 .096-.007.19-.02.283z" fill="#fff"/></svg>