<svg width="19" height="11" fill="none" xmlns="http://www.w3.org/2000/svg"><path d="M18.83 9.67c-.05-.086-.366-.772-1.886-2.183-1.592-1.478-1.378-1.238.539-3.792C18.65 2.139 19.117 1.189 18.97.783c-.14-.387-.998-.285-.998-.285l-2.855.016s-.211-.028-.37.066c-.152.092-.25.306-.25.306s-.453 1.204-1.057 2.228c-1.272 2.16-1.781 2.274-1.989 2.14-.483-.312-.362-1.256-.362-1.926 0-2.094.317-2.967-.619-3.193-.31-.074-.539-.124-1.333-.133-1.02-.01-1.883.004-2.37.243-.326.159-.577.514-.424.534.19.025.617.115.844.424.293.398.282 1.293.282 1.293s.169 2.465-.393 2.771c-.386.21-.914-.218-2.048-2.18C4.448 2.085 4.009.975 4.009.975S3.923.767 3.772.657a1.184 1.184 0 00-.44-.177L.62.497S.212.508.062.685c-.133.158-.01.484-.01.484s2.125 4.972 4.531 7.48c2.208 2.297 4.714 2.146 4.714 2.146h1.135s.343-.038.518-.227c.161-.173.155-.498.155-.498s-.022-1.524.686-1.748c.697-.221 1.592 1.472 2.541 2.124.717.493 1.262.385 1.262.385l2.538-.036s1.328-.082.699-1.126z" fill="#fff"/></svg>