<svg width="375" height="369" fill="none" xmlns="http://www.w3.org/2000/svg"><path d="M-1 1.528c44.621-11.02 24.708 154.921 144.046 81.973C232.607 28.755 287.189 131.407 375 115.254" stroke="url(#paint0_linear_145_4)" stroke-opacity=".4"/><path d="M-1 12.528c44.621-11.02 24.708 154.921 144.046 81.973C232.607 39.755 287.189 142.407 375 126.254" stroke="url(#paint1_linear_145_4)" stroke-opacity=".4"/><path d="M-1 24.532c44.621-11.114 24.708 156.257 144.046 82.68C232.607 51.994 287.189 155.531 375 139.239" stroke="url(#paint2_linear_145_4)" stroke-opacity=".4"/><path d="M-1 35.532c44.621-11.114 24.708 156.257 144.046 82.68C232.607 62.994 287.189 166.531 375 150.239" stroke="url(#paint3_linear_145_4)" stroke-opacity=".4"/><path d="M-1 46.532c44.621-11.114 24.708 156.257 144.046 82.68C232.607 73.994 287.189 177.531 375 161.239" stroke="url(#paint4_linear_145_4)" stroke-opacity=".4"/><path d="M375 2.097c-17.895-6.778-18.216 19.572-61.968 31.95-81.365 23.019 34.289 81.691-71.339 101.66C157.19 151.682-.322 284.269-1 295.5" stroke="url(#paint5_linear_145_4)" stroke-opacity=".4"/><path fill-rule="evenodd" clip-rule="evenodd" d="M363.646 44.058c3.375-1.793 6.914-2.176 11.532-.42l-.356.934c-4.361-1.658-7.598-1.283-10.706.37-2.859 1.519-5.611 4.114-9.013 7.322l-1.124 1.06c-7.844 7.367-18.97 17.176-41.032 23.44-20.346 5.776-28.185 13.733-30.379 22.588-1.104 4.457-.796 9.201.148 14.116.722 3.758 1.808 7.582 2.902 11.437.339 1.193.679 2.39 1.009 3.588 2.775 10.076 4.868 20.276-.558 29.211-5.42 8.924-18.235 16.421-44.759 21.453-21.1 4.003-46.634 17.125-73.109 34.783-26.464 17.651-53.821 39.801-78.557 61.808-24.735 22.007-46.842 43.864-62.806 60.923-7.982 8.53-14.423 15.856-18.888 21.398-2.233 2.772-3.966 5.091-5.149 6.887-.591.898-1.04 1.657-1.343 2.272-.311.629-.444 1.054-.459 1.302l-.998-.06c.028-.459.24-1.036.56-1.686.33-.665.802-1.462 1.405-2.378 1.208-1.834 2.963-4.181 5.205-6.964 4.486-5.569 10.946-12.914 18.937-21.455 15.985-17.081 38.113-38.959 62.871-60.986 24.757-22.026 52.152-44.208 78.667-61.892 26.503-17.677 52.174-30.893 73.477-34.934 26.479-5.024 38.908-12.455 44.091-20.99 5.178-8.526 3.233-18.318.449-28.426-.325-1.18-.661-2.365-.998-3.551-1.097-3.864-2.2-7.746-2.931-11.552-.957-4.981-1.29-9.887-.136-14.544 2.322-9.373 10.595-17.496 31.076-23.31 21.847-6.203 32.835-15.896 40.62-23.207l1.141-1.075c3.37-3.18 6.226-5.875 9.211-7.462z" fill="url(#paint6_linear_145_4)" fill-opacity=".3"/><path fill-rule="evenodd" clip-rule="evenodd" d="M363.68 35.049c3.365-1.783 6.893-2.163 11.497-.419l-.354.935c-4.348-1.647-7.576-1.274-10.675.367-2.849 1.51-5.592 4.09-8.984 7.279l-1.122 1.053c-7.82 7.322-18.913 17.072-40.908 23.297-20.286 5.741-28.1 13.65-30.286 22.45-1.101 4.428-.794 9.143.147 14.027.72 3.735 1.802 7.536 2.894 11.367.338 1.187.676 2.376 1.005 3.567 2.767 10.014 4.854 20.154-.557 29.036-5.404 8.871-18.181 16.322-44.625 21.324-21.045 3.98-46.578 16.278-73.079 32.702-26.49 16.418-53.906 36.932-78.708 57.303-24.802 20.371-46.982 40.593-63.002 56.422-8.011 7.914-14.476 14.726-18.957 19.905-2.242 2.591-3.98 4.766-5.165 6.461-.594.849-1.042 1.568-1.346 2.154-.31.601-.441 1.009-.456 1.251l-.998-.06c.028-.461.243-1.025.566-1.651.332-.639.808-1.399 1.414-2.267 1.214-1.736 2.977-3.94 5.228-6.542 4.505-5.207 10.99-12.038 19.01-19.963 16.043-15.85 38.247-36.093 63.071-56.482 24.824-20.389 52.277-40.933 78.817-57.381 26.529-16.442 52.189-28.819 73.419-32.835 26.399-4.993 38.79-12.379 43.957-20.861 5.161-8.472 3.223-18.203.447-28.25-.323-1.173-.659-2.35-.995-3.529-1.094-3.84-2.193-7.699-2.922-11.482-.954-4.95-1.286-9.828-.136-14.458 2.316-9.318 10.566-17.391 30.985-23.17 21.78-6.165 32.736-15.798 40.497-23.065l1.137-1.069c3.36-3.16 6.208-5.84 9.184-7.416z" fill="url(#paint7_linear_145_4)" fill-opacity=".3"/><path fill-rule="evenodd" clip-rule="evenodd" d="M363.609 22.251c3.364-1.782 6.891-2.162 11.495-.418l-.355.935c-4.347-1.647-7.573-1.274-10.672.367-2.849 1.51-5.591 4.088-8.983 7.277l-1.121 1.053c-7.818 7.32-18.909 17.068-40.9 23.292-20.281 5.74-28.094 13.648-30.28 22.445-1.1 4.428-.793 9.142.148 14.026.719 3.734 1.802 7.534 2.893 11.365.338 1.186.676 2.375 1.005 3.565 2.766 10.013 4.853 20.151-.557 29.031-5.403 8.87-18.177 16.319-44.616 21.32-21.045 3.98-46.544 15.863-72.993 31.662-26.439 15.792-53.787 35.473-78.522 55.011-24.734 19.537-46.848 38.924-62.818 54.127-7.985 7.602-14.43 14.152-18.895 19.149-2.234 2.499-3.966 4.602-5.147 6.248-.59.823-1.037 1.524-1.339 2.096-.309.587-.438.988-.453 1.228l-.998-.06c.028-.462.243-1.02.567-1.634.33-.628.806-1.37 1.41-2.213 1.211-1.688 2.97-3.82 5.214-6.332 4.49-5.024 10.956-11.595 18.952-19.207 15.993-15.224 38.13-34.632 62.887-54.187 24.757-19.555 52.142-39.263 78.629-55.085 26.478-15.816 52.099-27.772 73.32-31.786 26.394-4.992 38.782-12.376 43.948-20.857 5.16-8.471 3.222-18.199.447-28.244-.324-1.173-.659-2.35-.995-3.528-1.094-3.84-2.193-7.699-2.921-11.48-.954-4.95-1.286-9.827-.136-14.456 2.315-9.316 10.563-17.388 30.978-23.166 21.776-6.163 32.729-15.795 40.488-23.06l1.138-1.069c3.359-3.16 6.206-5.838 9.182-7.415z" fill="url(#paint8_linear_145_4)" fill-opacity=".3"/><path fill-rule="evenodd" clip-rule="evenodd" d="M363.609 11.35c3.364-1.782 6.891-2.162 11.495-.418l-.355.935c-4.347-1.647-7.573-1.274-10.672.367-2.849 1.51-5.591 4.089-8.983 7.277l-1.121 1.053c-7.818 7.32-18.909 17.069-40.9 23.293-20.281 5.74-28.094 13.647-30.28 22.445-1.1 4.428-.793 9.141.148 14.025.719 3.734 1.802 7.535 2.893 11.365.338 1.186.676 2.375 1.005 3.566 2.766 10.012 4.853 20.15-.557 29.03-5.403 8.87-18.177 16.32-44.616 21.32-21.051 3.981-46.585 15.394-73.08 30.48-26.486 15.081-53.897 33.813-78.695 52.401-24.797 18.588-46.973 37.026-62.99 51.516-8.008 7.246-14.47 13.499-18.95 18.288-2.24 2.395-3.976 4.416-5.16 6.005-.592.796-1.038 1.474-1.34 2.031-.31.57-.437.963-.452 1.201l-.998-.06c.028-.464.245-1.016.57-1.617.334-.615.811-1.336 1.418-2.152 1.216-1.632 2.98-3.684 5.232-6.091 4.505-4.817 10.99-11.091 19.01-18.347 16.04-14.512 38.24-32.969 63.06-51.574 24.82-18.605 52.267-37.362 78.8-52.47 26.525-15.103 52.174-26.581 73.389-30.594 26.394-4.991 38.782-12.376 43.948-20.857 5.16-8.47 3.222-18.199.447-28.244-.324-1.172-.659-2.35-.995-3.528-1.094-3.84-2.193-7.698-2.921-11.48-.954-4.95-1.286-9.827-.136-14.456 2.315-9.316 10.563-17.387 30.978-23.166 21.776-6.163 32.729-15.794 40.488-23.06l1.138-1.068c3.359-3.16 6.206-5.838 9.182-7.415z" fill="url(#paint9_linear_145_4)" fill-opacity=".3"/><defs><linearGradient id="paint0_linear_145_4" x1="-.916" y1="7.377" x2="374.819" y2="103.752" gradientUnits="userSpaceOnUse"><stop stop-color="#2B7A77"/><stop offset="1" stop-color="#3AAFA9"/></linearGradient><linearGradient id="paint1_linear_145_4" x1="-.916" y1="18.377" x2="374.819" y2="114.752" gradientUnits="userSpaceOnUse"><stop stop-color="#2B7A77"/><stop offset="1" stop-color="#3AAFA9"/></linearGradient><linearGradient id="paint2_linear_145_4" x1="-.916" y1="30.432" x2="375.215" y2="126.083" gradientUnits="userSpaceOnUse"><stop stop-color="#2B7A77"/><stop offset="1" stop-color="#3AAFA9"/></linearGradient><linearGradient id="paint3_linear_145_4" x1="-.916" y1="41.432" x2="375.215" y2="137.083" gradientUnits="userSpaceOnUse"><stop stop-color="#2B7A77"/><stop offset="1" stop-color="#3AAFA9"/></linearGradient><linearGradient id="paint4_linear_145_4" x1="-.916" y1="52.432" x2="375.215" y2="148.083" gradientUnits="userSpaceOnUse"><stop stop-color="#2B7A77"/><stop offset="1" stop-color="#3AAFA9"/></linearGradient><linearGradient id="paint5_linear_145_4" x1="128.055" y1="10.619" x2="388.824" y2="37.068" gradientUnits="userSpaceOnUse"><stop stop-color="#2B7A77"/><stop offset="1" stop-color="#3AAFA9"/></linearGradient><linearGradient id="paint6_linear_145_4" x1="1.206" y1="59.067" x2="396.811" y2="95.069" gradientUnits="userSpaceOnUse"><stop stop-color="#2B7A77"/><stop offset="1" stop-color="#3AAFA9"/></linearGradient><linearGradient id="paint7_linear_145_4" x1=".085" y1="48.661" x2="396.604" y2="86.249" gradientUnits="userSpaceOnUse"><stop stop-color="#2B7A77"/><stop offset="1" stop-color="#3AAFA9"/></linearGradient><linearGradient id="paint8_linear_145_4" x1=".585" y1="35.999" x2="396.434" y2="74.289" gradientUnits="userSpaceOnUse"><stop stop-color="#2B7A77"/><stop offset="1" stop-color="#3AAFA9"/></linearGradient><linearGradient id="paint9_linear_145_4" x1=".085" y1="24.718" x2="396.263" y2="64.07" gradientUnits="userSpaceOnUse"><stop stop-color="#2B7A77"/><stop offset="1" stop-color="#3AAFA9"/></linearGradient></defs></svg>