<svg width="1920" height="1104" fill="none" xmlns="http://www.w3.org/2000/svg"><path d="M-163 4.159C103.541-61.77-15.409 931.014 697.448 494.583 1232.43 167.052 1558.47 781.192 2083 684.553" stroke="url(#paint0_linear_145_3)" stroke-opacity=".4"/><path d="M-163 68.159C103.541 2.23-15.409 995.014 697.448 558.583 1232.43 231.052 1558.47 845.192 2083 748.553" stroke="url(#paint1_linear_145_3)" stroke-opacity=".4"/><path d="M-163 143.159C103.541 77.23-15.409 1070.01 697.448 633.583 1232.43 306.052 1558.47 920.192 2083 823.553" stroke="url(#paint2_linear_145_3)" stroke-opacity=".4"/><path d="M-163 210.159C103.541 144.23-15.409 1137.01 697.448 700.583 1232.43 373.052 1558.47 987.192 2083 890.553" stroke="url(#paint3_linear_145_3)" stroke-opacity=".4"/><path d="M-163 274.159C103.541 208.23-15.409 1201.01 697.448 764.583 1232.43 437.052 1558.47 1051.19 2083 954.553" stroke="url(#paint4_linear_145_3)" stroke-opacity=".4"/><path d="M2082 8.546c-123.17-46.63-125.37 134.663-426.5 219.825-560 158.374 236 562.052-491 699.443C582.9 1037.73 386.667 1244.73 382 1322" stroke="url(#paint5_linear_145_3)" stroke-opacity=".4"/><path fill-rule="evenodd" clip-rule="evenodd" d="M2081.68 299.085c-30.92-11.716-54.3-9.122-76.67 2.727-20.1 10.651-39.38 28.784-62.59 50.607-2.54 2.393-5.13 4.83-7.78 7.307-53.56 50.152-129.32 116.761-279.78 159.345-140.06 39.644-195.53 94.695-211.08 157.267-7.77 31.256-5.55 64.33.97 98.192 4.99 25.879 12.5 52.253 20.02 78.644 2.31 8.132 4.63 16.265 6.87 24.386 19.07 69.017 32.84 137.16-3.4 196.64-36.24 59.49-122.61 110.49-304.33 144.86-153.11 28.96-279.525 64.65-382.777 102.94h2.882c102.724-37.91 228.265-73.24 380.075-101.96 181.78-34.38 268.53-85.44 305.01-145.32 36.48-59.89 22.56-128.442 3.51-197.426-2.25-8.136-4.57-16.278-6.89-24.414v-.008c-7.52-26.382-15.01-52.698-19.99-78.532-6.51-33.794-8.7-66.705-.98-97.761 15.42-62.053 70.45-116.94 210.39-156.546 150.67-42.645 226.57-109.37 280.19-159.577 2.64-2.473 5.22-4.905 7.76-7.292 23.24-21.852 42.41-39.885 62.39-50.468 22.1-11.708 45.18-14.295 75.84-2.676l.36-.935z" fill="url(#paint6_linear_145_3)" fill-opacity=".3"/><path fill-rule="evenodd" clip-rule="evenodd" d="M2081.68 232.085c-30.92-11.716-54.3-9.122-76.67 2.727-20.1 10.651-39.38 28.784-62.59 50.607-2.54 2.393-5.13 4.83-7.78 7.307-53.56 50.152-129.32 116.761-279.78 159.345-140.06 39.644-195.53 94.695-211.08 157.267-7.77 31.256-5.55 64.33.97 98.192 4.99 25.879 12.5 52.253 20.02 78.644 2.31 8.132 4.63 16.265 6.87 24.386 19.07 69.017 32.84 137.156-3.4 196.64-36.24 59.49-122.61 110.49-304.33 144.86-240.076 45.41-414.52 107.37-536.949 169.94h2.201c122.237-62.21 296.067-123.78 534.928-168.96 181.78-34.38 268.53-85.44 305.01-145.32 36.48-59.894 22.57-128.442 3.51-197.426-2.25-8.136-4.57-16.278-6.89-24.414v-.008c-7.52-26.382-15.01-52.698-19.99-78.532-6.51-33.794-8.7-66.705-.98-97.761 15.42-62.053 70.45-116.94 210.39-156.546 150.67-42.645 226.57-109.37 280.19-159.577 2.64-2.473 5.22-4.905 7.76-7.292 23.24-21.852 42.41-39.885 62.39-50.468 22.1-11.708 45.18-14.295 75.84-2.676l.36-.935z" fill="url(#paint7_linear_145_3)" fill-opacity=".3"/><path fill-rule="evenodd" clip-rule="evenodd" d="M2081.68 147.085c-30.92-11.716-54.3-9.122-76.67 2.727-20.1 10.651-39.38 28.784-62.59 50.607-2.54 2.393-5.13 4.83-7.78 7.307-53.56 50.152-129.32 116.761-279.78 159.345-140.06 39.644-195.53 94.695-211.08 157.267-7.77 31.256-5.55 64.33.97 98.192 4.99 25.879 12.5 52.253 20.02 78.644 2.31 8.132 4.63 16.265 6.87 24.386 19.07 69.017 32.84 137.156-3.39 196.638-36.25 59.493-122.61 110.492-304.34 144.862-290.845 55.01-485.365 134.32-607.771 209.57-25.009 15.37-47.008 30.58-66.205 45.37h1.64c18.922-14.52 40.553-29.44 65.089-44.52 122.277-75.17 316.674-154.44 607.427-209.44 181.78-34.38 268.53-85.44 305.01-145.322 36.48-59.892 22.57-128.44 3.51-197.424-2.25-8.136-4.57-16.278-6.89-24.414v-.008c-7.51-26.382-15.01-52.698-19.99-78.532-6.51-33.794-8.7-66.705-.98-97.761 15.42-62.053 70.45-116.94 210.39-156.546 150.67-42.645 226.57-109.37 280.19-159.577 2.64-2.473 5.22-4.905 7.76-7.292 23.24-21.852 42.41-39.885 62.39-50.468 22.1-11.708 45.18-14.295 75.84-2.676l.36-.935z" fill="url(#paint8_linear_145_3)" fill-opacity=".3"/><path fill-rule="evenodd" clip-rule="evenodd" d="M2081.68 72.085c-30.92-11.716-54.31-9.122-76.67 2.727-20.1 10.651-39.38 28.784-62.59 50.607-2.54 2.393-5.13 4.83-7.78 7.307-53.56 50.152-129.32 116.761-279.78 159.345-140.06 39.644-195.53 94.695-211.08 157.267-7.77 31.256-5.56 64.33.97 98.192 4.98 25.879 12.5 52.253 20.02 78.644 2.31 8.132 4.63 16.265 6.87 24.386 19.07 69.017 32.84 137.156-3.4 196.638-36.24 59.493-122.61 110.492-304.33 144.863-290.847 55.009-485.366 134.319-607.773 209.569-61.202 37.62-104.385 74.23-132.566 106.3a297.086 297.086 0 00-11.653 14.07h1.267c3.411-4.37 7.12-8.84 11.137-13.41 28.1-31.97 71.2-68.53 132.339-106.11 122.277-75.17 316.674-154.44 607.429-209.437 181.77-34.379 268.53-85.443 305.01-145.325 36.48-59.892 22.56-128.44 3.51-197.424-2.25-8.136-4.57-16.278-6.89-24.414v-.008c-7.52-26.382-15.01-52.698-19.99-78.532-6.51-33.794-8.7-66.705-.98-97.761 15.42-62.053 70.45-116.94 210.39-156.546 150.67-42.645 226.57-109.37 280.19-159.577 2.64-2.473 5.22-4.905 7.76-7.292 23.24-21.852 42.41-39.885 62.39-50.468 22.1-11.708 45.18-14.294 75.84-2.676l.36-.935z" fill="url(#paint9_linear_145_3)" fill-opacity=".3"/><defs><linearGradient id="paint0_linear_145_3" x1="-162.498" y1="39.153" x2="2082.35" y2="614.048" gradientUnits="userSpaceOnUse"><stop stop-color="#2B7A77"/><stop offset="1" stop-color="#3AAFA9"/></linearGradient><linearGradient id="paint1_linear_145_3" x1="-162.498" y1="103.153" x2="2082.35" y2="678.048" gradientUnits="userSpaceOnUse"><stop stop-color="#2B7A77"/><stop offset="1" stop-color="#3AAFA9"/></linearGradient><linearGradient id="paint2_linear_145_3" x1="-162.498" y1="178.153" x2="2082.35" y2="753.048" gradientUnits="userSpaceOnUse"><stop stop-color="#2B7A77"/><stop offset="1" stop-color="#3AAFA9"/></linearGradient><linearGradient id="paint3_linear_145_3" x1="-162.498" y1="245.153" x2="2082.35" y2="820.048" gradientUnits="userSpaceOnUse"><stop stop-color="#2B7A77"/><stop offset="1" stop-color="#3AAFA9"/></linearGradient><linearGradient id="paint4_linear_145_3" x1="-162.498" y1="309.153" x2="2082.35" y2="884.048" gradientUnits="userSpaceOnUse"><stop stop-color="#2B7A77"/><stop offset="1" stop-color="#3AAFA9"/></linearGradient><linearGradient id="paint5_linear_145_3" x1="382.381" y1="67.179" x2="2177.14" y2="249.276" gradientUnits="userSpaceOnUse"><stop stop-color="#2B7A77"/><stop offset="1" stop-color="#3AAFA9"/></linearGradient><linearGradient id="paint6_linear_145_3" x1="781.424" y1="343.125" x2="2154.99" y2="479.798" gradientUnits="userSpaceOnUse"><stop stop-color="#2B7A77"/><stop offset="1" stop-color="#3AAFA9"/></linearGradient><linearGradient id="paint7_linear_145_3" x1="627.287" y1="279.482" x2="2162.13" y2="439.878" gradientUnits="userSpaceOnUse"><stop stop-color="#2B7A77"/><stop offset="1" stop-color="#3AAFA9"/></linearGradient><linearGradient id="paint8_linear_145_3" x1="490.29" y1="198.74" x2="2169.15" y2="376.912" gradientUnits="userSpaceOnUse"><stop stop-color="#2B7A77"/><stop offset="1" stop-color="#3AAFA9"/></linearGradient><linearGradient id="paint9_linear_145_3" x1="412.292" y1="127.497" x2="2173.96" y2="311.924" gradientUnits="userSpaceOnUse"><stop stop-color="#2B7A77"/><stop offset="1" stop-color="#3AAFA9"/></linearGradient></defs></svg>