<svg width="21" height="15" fill="none" xmlns="http://www.w3.org/2000/svg"><path d="M20.116 2.595l.025.164a2.535 2.535 0 00-1.723-1.76l-.017-.004C16.84.57 10.567.57 10.567.57S4.31.563 2.734.995A2.537 2.537 0 00.998 2.74l-.004.018C.41 5.8.407 9.457 1.02 12.715l-.026-.165a2.537 2.537 0 001.723 1.76l.018.004c1.557.424 7.833.424 7.833.424s6.258 0 7.833-.424a2.536 2.536 0 001.737-1.747l.004-.017a26.06 26.06 0 00.417-4.707l-.001-.184v-.192c0-1.664-.15-3.292-.442-4.872zm-11.55 8.102V4.62l5.221 3.043-5.221 3.034z" fill="#fff"/></svg>